<svg width="374" height="374" viewBox="0 0 374 374" fill="none" xmlns="http://www.w3.org/2000/svg">
<circle cx="187" cy="187" r="187" fill="#B2BAF5"/>
<path d="M213.932 226.774C211.269 226.774 208.605 226.238 206.163 225.211C203.677 224.184 201.457 222.665 199.592 220.745C195.774 216.859 193.643 211.634 193.643 206.185C193.643 200.737 195.774 195.512 199.592 191.626C201.457 189.706 203.721 188.187 206.163 187.16C208.649 186.133 211.269 185.597 213.932 185.597C216.596 185.597 219.26 186.133 221.702 187.16C224.188 188.187 226.408 189.706 228.273 191.626C232.091 195.512 234.222 200.737 234.222 206.185C234.222 211.634 232.091 216.859 228.273 220.745C226.408 222.665 224.144 224.184 221.702 225.211C219.216 226.238 216.596 226.774 213.932 226.774ZM213.932 163.4C205.586 163.4 197.417 165.857 190.446 170.546C183.476 175.236 178.059 181.935 174.818 189.706C171.577 197.521 170.734 206.096 172.332 214.358C173.93 222.665 177.926 230.258 183.831 236.287C189.736 242.316 197.239 246.425 205.452 248.167C213.666 249.819 222.146 248.971 229.871 245.755C237.596 242.495 244.167 237.002 248.74 229.99C254.156 221.772 256.598 211.902 255.666 202.077C254.733 192.251 250.427 183.051 243.545 175.995C239.638 172.065 235.021 168.894 229.96 166.75C224.854 164.606 219.393 163.49 213.888 163.445V163.356L213.932 163.4Z" fill="#333333"/>
<path d="M80.1241 226.996C79.5913 227.845 79.2805 228.783 79.2361 229.765V246.87H164.967V224.004H110.048L163.901 143.123C164.434 142.275 164.745 141.292 164.789 140.31V123.383H79.0586V146.294H133.889L80.0796 226.996H80.1241Z" fill="#333333"/>
<path d="M277.542 183.561L282.273 176.043C283.467 174.144 285.194 172.651 287.236 171.743L295.328 168.148C297.156 167.336 297.346 164.792 295.654 163.717L288.18 158.958C286.292 157.757 284.808 156.02 283.906 153.965L280.332 145.826C279.525 143.987 276.996 143.796 275.927 145.498L271.196 153.016C270.003 154.915 268.275 156.408 266.233 157.316L258.142 160.91C256.313 161.723 256.123 164.267 257.815 165.341L265.289 170.101C267.177 171.301 268.661 173.039 269.564 175.093L273.137 183.233C273.945 185.072 276.474 185.263 277.542 183.561Z" fill="#333333"/>
<path d="M313.571 148.393L310.87 146.906L312.336 144.219C312.532 143.855 312.401 143.395 312.039 143.198L305.301 139.484C304.939 139.286 304.482 139.418 304.286 139.782L302.82 142.469L300.131 140.988C299.768 140.791 299.311 140.923 299.115 141.287L295.423 148.065C295.227 148.429 295.358 148.889 295.72 149.086L298.409 150.567L296.925 153.296C296.729 153.66 296.86 154.12 297.222 154.317L303.96 158.032C304.322 158.229 304.779 158.097 304.975 157.733L306.459 155.004L309.16 156.491C309.522 156.688 309.979 156.557 310.175 156.192L313.867 149.414C314.063 149.05 313.933 148.59 313.571 148.393Z" fill="#333333"/>
<path d="M287.094 140.153C289.504 140.153 291.457 138.188 291.457 135.764C291.457 133.34 289.504 131.375 287.094 131.375C284.684 131.375 282.73 133.34 282.73 135.764C282.73 138.188 284.684 140.153 287.094 140.153Z" fill="#333333"/>
<path d="M303.051 132.125L303.253 130.118C303.306 129.611 303.502 129.133 303.829 128.739L305.105 127.186C305.396 126.834 305.176 126.302 304.725 126.255L302.731 126.052C302.226 125.998 301.751 125.801 301.359 125.472L299.816 124.188C299.466 123.896 298.937 124.117 298.89 124.571L298.688 126.577C298.634 127.085 298.439 127.562 298.112 127.956L296.836 129.509C296.545 129.861 296.765 130.393 297.216 130.441L299.21 130.644C299.715 130.697 300.19 130.895 300.582 131.223L302.125 132.507C302.475 132.8 303.004 132.579 303.051 132.125Z" fill="#333333"/>
</svg>
