<svg width="100" height="100" viewBox="0 0 100 100" fill="none" xmlns="http://www.w3.org/2000/svg">
<path d="M73.5323 28.875L57.5518 46.0835M73.5323 71.9336L57.5518 53.2526" stroke="#333333" stroke-width="1.6" stroke-linecap="round" stroke-linejoin="round" stroke-dasharray="2.54 3.39"/>
<circle cx="73.5313" cy="28.8731" r="7.99027" fill="#FED337"/>
<circle cx="73.5313" cy="71.127" r="7.99027" fill="#FED337"/>
<path d="M22.9117 39.0488C23.1971 38.6172 23.4826 38.1858 23.6681 37.7039C23.764 37.4583 23.8317 37.2029 23.8994 36.9476C23.9745 36.6645 24.0495 36.3817 24.1628 36.1128C24.3824 35.6433 24.6938 35.2223 25.0785 34.8745C25.4633 34.5267 25.9137 34.259 26.4035 34.0871C27.3405 33.7655 28.9786 33.9515 30.024 34.0703L30.1724 34.0871C30.2951 34.0978 30.4184 34.1102 30.5419 34.1227C31.1576 34.185 31.7797 34.248 32.3712 34.0871C32.6058 34.0247 32.828 33.9291 33.0497 33.8338C33.2021 33.7682 33.3544 33.7027 33.5103 33.6482C34.036 33.4458 34.6018 33.3687 35.1626 33.4232C35.7234 33.4777 36.2637 33.6622 36.7404 33.962C37.2099 34.2737 37.5781 34.7151 37.8003 35.2323C38.0225 35.7495 38.089 36.3201 37.9916 36.8743C37.7808 37.8667 36.8723 38.6795 35.8776 38.7676C36.0943 39.3711 36.2123 40.0208 36.2123 40.6978V43.028C36.7781 43.6235 37.3968 44.5043 37.1037 45.1076C36.8861 45.5555 36.4455 45.7892 36.0244 45.9009C35.5783 47.6128 34.3725 49.0234 32.7833 49.7609V50.5434C32.7833 51.0994 33.096 51.6139 33.6149 51.8291C34.6785 52.2701 35.8401 52.6024 36.982 52.929C39.654 53.6932 42.2179 54.4266 43.1654 56.4504C43.9985 58.2297 44.453 61.4562 44.6572 63.9655C44.7423 65.0113 43.8914 65.8824 42.8295 65.8824L15.8742 65.8823C14.8123 65.8823 13.9614 65.0111 14.0465 63.9654C14.2507 61.4561 14.7052 58.2295 15.5383 56.4502C16.4858 54.4265 19.0497 53.6931 21.7217 52.9288C22.8636 52.6022 24.0252 52.27 25.0888 51.829C25.6077 51.6138 25.9204 51.0992 25.9204 50.5433V48.8764C25.3566 48.5485 24.6453 48.0401 24.1628 47.3933C23.9419 47.0972 23.7371 46.7895 23.5493 46.4716C23.1826 45.8567 22.8987 45.1963 22.7049 44.5073C22.6845 44.4376 22.6635 44.3666 22.6423 44.2947L22.6402 44.2878C22.2419 42.9402 21.7412 41.2458 22.3245 40.0149C22.4944 39.6795 22.7031 39.3641 22.9117 39.0488Z" fill="#FED337"/>
<path d="M71.5373 49.7383H58.6641" stroke="#333333" stroke-width="1.6" stroke-linecap="round" stroke-linejoin="round"/>
<path d="M39.3535 49.7383H55.1121" stroke="#333333" stroke-width="1.6" stroke-linecap="round" stroke-linejoin="round" stroke-dasharray="2.54 3.39"/>
<circle cx="77.9688" cy="49.7403" r="7.99026" fill="#B2BAF5" stroke="#333333" stroke-width="1.6"/>
<path d="M81.3678 46.8311C81.5599 46.5315 81.4723 46.1332 81.1721 45.9415C80.872 45.7498 80.4729 45.8372 80.2808 46.1368L76.9859 51.275L75.683 48.8475C75.5147 48.5339 75.1236 48.4159 74.8094 48.5839C74.4953 48.7519 74.3771 49.1422 74.5454 49.4557L76.3677 52.8509C76.4758 53.0523 76.6828 53.1815 76.9115 53.1903C77.1403 53.1992 77.3566 53.0864 77.48 52.8939L81.3678 46.8311Z" fill="white"/>
<circle cx="58.215" cy="49.7384" r="4.88294" fill="#FDFAEE" stroke="#333333" stroke-width="1.6"/>
</svg>
