<svg width="100" height="100" viewBox="0 0 100 100" fill="none" xmlns="http://www.w3.org/2000/svg">
<path d="M44.3035 79.7704C44.1455 79.7704 43.9835 79.7218 43.8457 79.6286C43.5662 79.4382 43.4325 79.0898 43.5176 78.7616C43.5176 78.7495 43.8052 77.607 43.8781 76.6427C43.9511 75.6501 43.2704 74.8439 42.9261 74.5076H36.2412C34.7382 74.5076 33.5146 73.2841 33.5146 71.781V48.2383C33.5146 46.7352 34.7382 45.5117 36.2412 45.5117H75.629C77.1321 45.5117 78.3556 46.7352 78.3556 48.2383V71.781C78.3556 73.2841 77.1321 74.5076 75.629 74.5076H48.6831C48.5616 75.006 48.3347 75.7069 47.9093 76.4847C47.1274 77.923 45.0085 79.4544 44.7735 79.6246C44.6317 79.7259 44.4697 79.7745 44.3035 79.7745V79.7704ZM36.2412 47.1282C36.2393 47.1282 37.932 47.1282 36.2372 47.1282H36.2412Z" fill="#FDFAEE"/>
<path d="M75.6289 45.46C77.1607 45.46 78.4072 46.7065 78.4072 48.2383V71.7812C78.4071 73.3129 77.1606 74.5596 75.6289 74.5596H48.7227C48.598 75.0586 48.3718 75.7477 47.9551 76.5098C47.5596 77.2372 46.8285 77.9847 46.1709 78.5693C45.8414 78.8623 45.5288 79.1151 45.2842 79.3057L44.8037 79.667C44.6528 79.7747 44.4801 79.8261 44.3037 79.8262H44.252V79.8174C44.1004 79.8079 43.9477 79.7607 43.8164 79.6719C43.5226 79.4717 43.3818 79.1076 43.4658 78.7617V78.7539L43.4668 78.751C43.4671 78.7496 43.4675 78.7475 43.4678 78.7461C43.4684 78.7432 43.4687 78.7389 43.4697 78.7344C43.4719 78.725 43.4755 78.7112 43.4795 78.6943C43.4875 78.6602 43.4988 78.6111 43.5127 78.5498C43.5407 78.4262 43.5787 78.2521 43.6191 78.0488C43.7 77.642 43.7899 77.1177 43.8262 76.6387C43.8962 75.6845 43.2507 74.902 42.9043 74.5596H36.2412C34.7095 74.5596 33.463 73.3129 33.4629 71.7812V48.2383C33.4629 46.7066 34.7095 45.46 36.2412 45.46H75.6289ZM36.2412 47.1797C35.6583 47.1797 35.1875 47.6552 35.1875 48.2344V71.7773C35.1877 72.3601 35.6622 72.831 36.2412 72.8311H43.2383C43.3805 72.8311 43.5227 72.8673 43.6484 72.9346L43.7686 73.0117V73.0127C43.8099 73.0454 44.2938 73.4288 44.748 74.0791C45.2028 74.7301 45.6309 75.6521 45.5508 76.7598C45.5507 76.7678 45.5482 76.7759 45.5479 76.7842C45.9239 76.4094 46.26 76.0215 46.4502 75.6777L46.5596 75.4678C46.8022 74.9846 46.9492 74.5505 47.0361 74.2246C47.0858 74.0385 47.1159 73.8877 47.1338 73.7832C47.1427 73.7309 47.1478 73.6898 47.1514 73.6621L47.1562 73.623V73.6201C47.195 73.1762 47.5703 72.8311 48.0146 72.8311H75.6328C76.2156 72.8311 76.6873 72.3563 76.6875 71.7773V48.2344C76.6875 47.6514 76.212 47.1797 75.6328 47.1797H36.2412Z" fill="#333333" stroke="#333333" stroke-width="0.103879"/>
<path d="M60.6062 20.2266H20.8984C19.529 20.2266 18.4189 21.3367 18.4189 22.706V52.4879C18.4189 53.8573 19.529 54.9674 20.8984 54.9674H60.6062C61.9756 54.9674 63.0857 53.8573 63.0857 52.4879V22.706C63.0857 21.3367 61.9756 20.2266 60.6062 20.2266Z" fill="#B2BAF5"/>
<path d="M28.3448 59.9317C25.1199 59.9317 23.3818 54.9688 23.3818 54.9688H28.3448C28.3448 54.9688 27.1051 57.4482 28.3448 59.9317Z" fill="#B2BAF5"/>
<path d="M51.5519 58.8635C52.1555 58.8635 52.6458 58.3733 52.6458 57.7697C52.6458 57.166 52.1555 56.6758 51.5519 56.6758C50.9482 56.6758 50.458 57.166 50.458 57.7697C50.458 58.3733 50.9482 58.8635 51.5519 58.8635Z" fill="#333333"/>
<path d="M60.3185 58.8635C60.9221 58.8635 61.4124 58.3733 61.4124 57.7697C61.4124 57.166 60.9221 56.6758 60.3185 56.6758C59.7148 56.6758 59.2246 57.166 59.2246 57.7697C59.2246 58.3733 59.7148 58.8635 60.3185 58.8635Z" fill="#333333"/>
<path d="M55.2057 67.0134C54.4765 67.0134 53.6784 66.9364 53.0544 66.4583C52.6453 66.1464 52.0254 65.6724 52.0254 64.7851C52.0254 63.7196 52.9005 63.3347 53.3705 63.1321L53.4879 63.0794C53.9052 62.8931 54.4846 62.7715 55.2138 62.7148C56.6035 62.6095 57.8635 62.7148 59.0141 62.8485C59.1599 62.8647 59.2936 62.9214 59.403 63.0025C59.8284 63.0997 60.035 63.4643 60.1079 63.594C60.1161 63.6142 60.0998 63.5859 60.0917 63.5778C60.4483 64.0194 60.5577 64.9309 60.3227 65.4576C59.6258 67.0053 57.4097 67.0093 56.1983 67.0012H56.1335C56.012 67.0012 55.8783 67.0012 55.7365 67.0093C55.5663 67.0134 55.384 67.0174 55.1976 67.0174L55.2057 67.0134ZM53.6541 64.7972C53.6865 64.8985 53.889 65.0565 54.043 65.174C54.3671 65.4212 55.1369 65.4009 55.7 65.3847C55.854 65.3806 56.0039 65.3766 56.1416 65.3766H56.2064C56.8506 65.3847 58.5238 65.3766 58.8358 64.8175C58.8399 64.7446 58.8277 64.6109 58.8034 64.5461C58.8034 64.5461 58.7993 64.538 58.7953 64.5339C58.6656 64.5015 58.5441 64.4569 58.4428 64.4124C57.4786 64.3111 56.4455 64.2463 55.3394 64.3273C54.829 64.3637 54.3874 64.4529 54.1564 64.5542L54.0227 64.6109C53.9052 64.6635 53.731 64.7365 53.6541 64.7932V64.7972Z" fill="#333333"/>
<path d="M56.1095 60.9065C56.7132 60.9065 57.2034 60.4163 57.2034 59.8126C57.2034 59.209 56.7132 58.7188 56.1095 58.7188C55.5058 58.7188 55.0156 59.209 55.0156 59.8126C55.0156 60.4163 55.5058 60.9065 56.1095 60.9065Z" fill="#333333"/>
<path d="M63.3579 9.16087C63.5356 8.60234 64.1324 8.29363 64.691 8.47134C65.2495 8.64905 65.5582 9.2459 65.3805 9.80443L63.4127 15.9889C63.235 16.5474 62.6382 16.8561 62.0796 16.6784C61.5211 16.5007 61.2124 15.9039 61.3901 15.3453L63.3579 9.16087Z" fill="#FDD832"/>
<path d="M72.6948 15.9138C73.0672 16.3665 73.0022 17.0353 72.5495 17.4076L67.3517 21.684C66.8991 22.0564 66.2303 21.9913 65.8579 21.5387C65.4855 21.0861 65.5506 20.4173 66.0032 20.0449L71.201 15.7685C71.6536 15.3962 72.3224 15.4612 72.6948 15.9138Z" fill="#FDD832"/>
<path d="M76.9681 25.5768C77.0348 26.1591 76.6169 26.6853 76.0346 26.7521L69.5869 27.4912C69.0045 27.5579 68.4784 27.14 68.4116 26.5577C68.3449 25.9754 68.7628 25.4492 69.3451 25.3825L75.7929 24.6433C76.3752 24.5766 76.9013 24.9945 76.9681 25.5768Z" fill="#FDD832"/>
<path d="M39.483 39.0768C39.483 38.6758 39.8081 38.3506 40.2092 38.3506H46.7849C47.1859 38.3506 47.5111 38.6758 47.5111 39.0768V44.4144C47.5111 44.797 47.2009 45.1071 46.8183 45.1071C46.4357 45.1071 46.1256 44.797 46.1256 44.4144V40.3674C46.1256 39.9663 45.8005 39.6412 45.3994 39.6412H41.5567C41.1556 39.6412 40.8305 39.9663 40.8305 40.3674V44.5093C40.8305 44.8814 40.5288 45.1831 40.1567 45.1831C39.7846 45.1831 39.483 44.8814 39.483 44.5093V39.0768ZM38.9706 32.2489C38.9706 31.9083 39.2467 31.6321 39.5874 31.6321H46.2724C46.6735 31.6321 46.9986 31.9572 46.9986 32.3583V35.5987C46.9986 35.976 46.6927 36.2819 46.3154 36.2819C45.938 36.2819 45.6322 35.9761 45.6322 35.5987V33.5919C45.6322 33.1909 45.307 32.8657 44.906 32.8657H39.5874C39.2467 32.8657 38.9706 32.5896 38.9706 32.2489ZM41.6324 29.565C41.6843 29.1939 42.0183 28.9275 42.3914 28.9633C42.783 29.0008 43.0658 29.3557 43.0098 29.7451C42.9284 30.3115 42.8346 30.9089 42.7284 31.5372C42.5765 32.4229 42.4247 33.2833 42.2729 34.1184C42.1627 34.7242 42.0559 35.2668 41.9524 35.7461C41.8869 36.0495 41.6169 36.263 41.3066 36.263C40.8719 36.263 40.552 35.8542 40.6417 35.4289C40.692 35.1903 40.7422 34.9369 40.7925 34.6687C40.9064 34.0614 41.0203 33.4225 41.1341 32.7519C41.248 32.0813 41.3556 31.417 41.4568 30.7591C41.5203 30.3461 41.5789 29.9481 41.6324 29.565ZM38.6859 29.051C38.6859 28.7051 38.9663 28.4247 39.3122 28.4247H47.4541C47.8 28.4247 48.0804 28.7051 48.0804 29.051C48.0804 29.3969 47.8 29.6773 47.4541 29.6773H39.3122C38.9663 29.6773 38.6859 29.3969 38.6859 29.051ZM38.0975 36.2725C38.0975 35.9213 38.3822 35.6367 38.7333 35.6367H48.052C48.4031 35.6367 48.6878 35.9213 48.6878 36.2725C48.6878 36.6236 48.4031 36.9083 48.052 36.9083H38.7333C38.3822 36.9083 38.0975 36.6236 38.0975 36.2725ZM40.1093 43.6647C40.1093 43.3084 40.3982 43.0195 40.7546 43.0195H46.2585C46.6148 43.0195 46.9037 43.3084 46.9037 43.6647C46.9037 44.0211 46.6148 44.31 46.2585 44.31H40.7546C40.3982 44.31 40.1093 44.0211 40.1093 43.6647ZM32.0243 34.1373C32.0243 33.8229 32.2792 33.568 32.5936 33.568H36.807C37.1214 33.568 37.3763 33.8229 37.3763 34.1373C37.3763 34.4518 37.1214 34.7067 36.807 34.7067H32.5936C32.2792 34.7067 32.0243 34.4518 32.0243 34.1373ZM32.1381 28.9561C32.1381 28.6416 32.3931 28.3867 32.7075 28.3867H36.788C37.1024 28.3867 37.3573 28.6416 37.3573 28.9561C37.3573 29.2705 37.1024 29.5255 36.788 29.5255H32.7075C32.3931 29.5255 32.1381 29.2705 32.1381 28.9561ZM32.0243 36.728C32.0243 36.4187 32.2749 36.1681 32.5841 36.1681H36.8164C37.1257 36.1681 37.3763 36.4187 37.3763 36.728C37.3763 37.0372 37.1257 37.2878 36.8164 37.2878H32.5841C32.2749 37.2878 32.0243 37.0372 32.0243 36.728ZM31.1133 31.5182C31.1133 31.1933 31.3767 30.9299 31.7016 30.9299H37.4333C37.7582 30.9299 38.0216 31.1933 38.0216 31.5182C38.0216 31.8432 37.7582 32.1066 37.4333 32.1066H31.7016C31.3767 32.1066 31.1133 31.8432 31.1133 31.5182ZM32.6885 39.3565C32.6885 39.0316 32.9519 38.7682 33.2769 38.7682H36.726C37.1271 38.7682 37.4522 39.0933 37.4522 39.4944V43.5648C37.4522 43.9659 37.1271 44.291 36.726 44.291H33.2674C32.9477 44.291 32.6885 44.0319 32.6885 43.7122C32.6885 43.3925 32.9477 43.1333 33.2674 43.1333H35.4545C35.8555 43.1333 36.1807 42.8082 36.1807 42.4071V40.6711C36.1807 40.27 35.8555 39.9449 35.4545 39.9449H33.2769C32.9519 39.9449 32.6885 39.6815 32.6885 39.3565ZM31.9863 39.3945C31.9863 39.0486 32.2667 38.7682 32.6126 38.7682C32.9585 38.7682 33.2389 39.0486 33.2389 39.3945V44.5378C33.2389 44.8837 32.9585 45.1641 32.6126 45.1641C32.2667 45.1641 31.9863 44.8837 31.9863 44.5378V39.3945Z" fill="#333333"/>
</svg>
