<svg width="100" height="100" viewBox="0 0 100 100" fill="none" xmlns="http://www.w3.org/2000/svg">
<rect x="20" y="38.1914" width="50.9546" height="39.4905" rx="0.593919" fill="#FDFAEE"/>
<path d="M20.001 32.2432C20.001 31.9147 20.2673 31.6484 20.5957 31.6484H70.2261C70.5545 31.6484 70.8208 31.9147 70.8208 32.2432V40.0937H20.001V32.2432Z" fill="#333333"/>
<path d="M20 32.2432C20 31.9147 20.2663 31.6484 20.5947 31.6484H70.3599C70.6884 31.6484 70.9546 31.9147 70.9546 32.2432V77.0872C70.9546 77.4152 70.6887 77.6811 70.3607 77.6811H20.5939C20.2659 77.6811 20 77.4152 20 77.0872V32.2432Z" stroke="#333333" stroke-width="1.6" stroke-linecap="round" stroke-linejoin="round"/>
<circle cx="53.2208" cy="27.9005" r="8.61538" fill="#FED337" stroke="#333333" stroke-width="1.6" stroke-linecap="round" stroke-dasharray="3.26 3.26"/>
<path fill-rule="evenodd" clip-rule="evenodd" d="M50.8611 23.9382C50.6806 23.8083 50.4391 23.9616 50.4625 24.1913L51.1125 30.577C51.1358 30.806 51.4013 30.9017 51.5519 30.7355L52.4116 29.7869C52.4478 29.7469 52.4994 29.7267 52.5515 29.7322C52.6037 29.7376 52.6505 29.7681 52.6787 29.8148L53.8512 31.7602C53.9273 31.8864 54.0856 31.9235 54.2048 31.843L55.54 30.9418C55.6593 30.8613 55.6943 30.6938 55.6182 30.5676L54.4457 28.6222C54.4163 28.5735 54.4108 28.5128 54.4308 28.459C54.4507 28.4052 54.4939 28.3648 54.5467 28.3502L55.7695 28.0141C55.9826 27.9556 56.0312 27.6588 55.8492 27.5278L50.8611 23.9382Z" fill="white"/>
<circle cx="73.0031" cy="39.424" r="8.61538" fill="#FED337" stroke="#333333" stroke-width="1.6" stroke-linecap="round" stroke-dasharray="3.26 3.26"/>
<rect x="69.21" y="35.832" width="8.41329" height="5.501" rx="0.323602" fill="#FDFAEE"/>
<rect x="72.1211" y="42.5469" width="2.58871" height="0.647176" rx="0.323588" fill="#FDFAEE"/>
<rect x="73.7402" y="40.6055" width="2.58871" height="0.647176" rx="0.323588" transform="rotate(90 73.7402 40.6055)" fill="#FDFAEE"/>
<rect x="69.8574" y="36.4805" width="7.11894" height="4.20665" fill="#FDFAEE"/>
<circle cx="70.9542" cy="61.4083" r="8.61538" fill="#FED337" stroke="#333333" stroke-width="1.6" stroke-linecap="round" stroke-dasharray="3.26 3.26"/>
<path d="M67.3231 57.8449L70.824 56.7931C70.9091 56.7675 70.9999 56.7675 71.085 56.7931L74.5859 57.8449C74.7777 57.9026 74.909 58.0792 74.909 58.2794V61.7044C74.8707 63.1058 74.0461 65.2152 71.0688 66.0305C70.9948 66.0508 70.9142 66.0508 70.8402 66.0305C67.8629 65.2152 67.0383 63.1058 67 61.7044V58.2798C67 58.0796 67.1313 57.9026 67.3231 57.8449Z" fill="white"/>
<rect x="32.6211" y="49.9141" width="25.7826" height="18.0665" rx="2.2354" fill="#B2BAF5"/>
<path fill-rule="evenodd" clip-rule="evenodd" d="M48.3801 55.7227C48.6796 55.9144 48.7669 56.3125 48.5753 56.6119L45.1421 61.9763C45.019 62.1687 44.8031 62.2814 44.5749 62.2726C44.3467 62.2637 44.1403 62.1346 44.0324 61.9333L42.4231 58.9292C42.2552 58.6159 42.3732 58.2257 42.6866 58.0578C42.9999 57.8899 43.3901 58.0079 43.558 58.3213L44.6492 60.3581L47.4909 55.9179C47.6826 55.6185 48.0807 55.5311 48.3801 55.7227Z" fill="#333333"/>
</svg>
